<?xml version="1.0" standalone="no"?>
<!DOCTYPE svg PUBLIC "-//W3C//DTD SVG 20010904//EN"
 "http://www.w3.org/TR/2001/REC-SVG-20010904/DTD/svg10.dtd">
<svg version="1.0" xmlns="http://www.w3.org/2000/svg"
 width="1543.000000pt" height="320.000000pt" viewBox="0 0 1543.000000 320.000000"
 preserveAspectRatio="xMidYMid meet">

<g transform="translate(0.000000,320.000000) scale(0.100000,-0.100000)"
fill="#fff" stroke="none">
<path d="M1830 2304 l-55 -25 -75 -209 c-41 -115 -78 -206 -81 -202 -6 7 -50
119 -130 332 -23 63 -44 116 -45 118 -6 10 -114 -34 -118 -47 -4 -14 -46 -215
-106 -509 -12 -56 -20 -109 -18 -118 4 -20 108 -68 113 -51 2 6 24 102 50 212
25 110 47 204 48 209 2 4 45 -91 97 -213 51 -122 97 -224 101 -226 3 -3 22 10
41 28 31 27 44 56 93 202 31 94 61 176 65 184 8 15 8 18 61 -244 18 -88 35
-164 39 -168 4 -4 34 4 68 19 56 24 61 28 56 53 -3 14 -33 172 -67 350 -34
178 -66 326 -72 327 -5 2 -35 -8 -65 -22z"/>
<path d="M674 2255 c-13 -31 -24 -60 -24 -65 0 -6 42 -10 100 -10 l100 0 0
-280 0 -280 75 0 75 0 0 280 0 279 82 3 81 3 28 63 28 62 -260 0 -260 0 -25
-55z"/>
<path d="M2413 2297 c-18 -7 -36 -16 -42 -22 -16 -18 -311 -678 -311 -698 0
-12 5 -17 14 -14 8 3 41 11 75 18 58 11 62 14 80 53 10 22 37 58 61 80 44 39
159 98 216 110 29 7 32 5 49 -39 13 -36 21 -45 34 -39 9 3 37 9 64 11 26 3 47
7 47 8 0 1 -7 19 -15 38 -8 20 -15 39 -15 42 0 11 128 4 188 -10 34 -8 93 -30
130 -49 173 -87 269 -201 337 -398 28 -84 33 -59 10 53 -34 159 -130 296 -272
390 -110 71 -201 96 -413 111 l-34 3 -77 180 c-42 98 -80 180 -85 181 -5 1
-23 -3 -41 -9z m52 -297 c20 -40 35 -74 33 -75 -7 -7 -162 -64 -165 -61 -2 2
17 51 43 110 26 58 49 105 50 103 2 -2 20 -36 39 -77z"/>
<path d="M7188 2062 l-58 -14 0 -360 c0 -404 1 -412 65 -424 37 -7 86 8 106
32 9 12 8 19 -8 37 -11 12 -24 29 -29 37 -5 8 -11 170 -14 360 l-5 346 -57
-14z"/>
<path d="M13458 2063 l-58 -15 0 -115 0 -115 -27 6 c-78 17 -122 18 -174 3
-69 -21 -117 -61 -154 -128 -24 -45 -30 -69 -33 -140 -8 -154 47 -250 159
-283 80 -24 119 -21 212 19 12 5 17 3 17 -9 0 -13 12 -16 65 -16 l65 0 0 405
c0 223 -3 405 -7 404 -5 -1 -34 -8 -65 -16z m-78 -358 c18 -16 20 -30 20 -154
0 -75 -4 -141 -8 -148 -22 -35 -119 -43 -172 -14 -45 24 -70 67 -77 134 -13
126 57 212 164 204 32 -2 60 -11 73 -22z"/>
<path d="M8545 2035 c-16 -15 -25 -36 -25 -55 0 -38 39 -80 75 -80 36 0 75 42
75 80 0 38 -39 80 -75 80 -14 0 -37 -11 -50 -25z"/>
<path d="M12765 2035 c-16 -15 -25 -36 -25 -55 0 -38 39 -80 75 -80 36 0 75
42 75 80 0 38 -39 80 -75 80 -14 0 -37 -11 -50 -25z"/>
<path d="M6063 2036 c-94 -31 -143 -97 -143 -194 0 -111 34 -151 198 -237 88
-46 122 -86 122 -142 0 -56 -25 -76 -103 -81 -53 -3 -70 1 -119 25 l-56 29
-22 -53 c-12 -29 -20 -60 -17 -68 8 -19 128 -55 185 -55 113 0 217 55 253 134
22 47 23 80 8 141 -16 65 -65 113 -169 170 -145 78 -181 136 -121 196 24 24
38 29 76 29 25 0 69 -10 96 -21 27 -12 51 -20 53 -18 10 13 35 103 30 111 -23
37 -197 59 -271 34z"/>
<path d="M10433 2043 l-33 -4 0 -385 0 -384 70 0 70 0 0 140 0 140 55 0 c193
0 300 80 312 235 15 178 -81 255 -327 260 -63 2 -130 1 -147 -2z m241 -124
c22 -6 52 -24 68 -39 23 -24 28 -37 28 -78 0 -89 -58 -132 -177 -132 l-53 0 0
130 0 130 48 0 c26 0 65 -5 86 -11z"/>
<path d="M4060 1655 l0 -385 70 0 70 0 0 385 0 385 -70 0 -70 0 0 -385z"/>
<path d="M4910 1980 l0 -60 125 0 125 0 0 -325 0 -325 65 0 65 0 0 325 0 325
130 0 130 0 0 60 0 60 -320 0 -320 0 0 -60z"/>
<path d="M8145 1965 l-60 -23 -3 -56 c-3 -55 -4 -56 -32 -56 -30 0 -30 -1 -30
-55 0 -54 0 -55 29 -55 l29 0 4 -172 c4 -201 12 -227 88 -266 39 -20 55 -23
122 -19 42 3 81 8 87 12 6 3 11 31 11 62 0 53 -1 55 -22 48 -56 -18 -103 -17
-128 3 -24 20 -25 24 -28 176 l-4 156 81 0 81 0 0 55 0 55 -80 0 -79 0 -3 79
-3 78 -60 -22z"/>
<path d="M4515 1831 c-74 -18 -140 -75 -174 -151 -26 -58 -28 -185 -4 -255 23
-70 87 -130 159 -151 152 -44 307 32 345 169 20 70 14 187 -11 245 -50 115
-182 175 -315 143z m136 -117 c58 -30 86 -147 59 -246 -15 -53 -70 -98 -121
-98 -86 0 -128 48 -137 157 -12 151 88 245 199 187z"/>
<path d="M6655 1831 c-74 -18 -140 -75 -174 -151 -26 -58 -28 -185 -4 -255 23
-70 87 -130 159 -151 152 -44 307 32 345 169 20 70 14 187 -11 245 -50 115
-182 175 -315 143z m136 -117 c58 -30 86 -147 59 -246 -15 -53 -70 -98 -121
-98 -86 0 -128 48 -137 157 -12 151 88 245 199 187z"/>
<path d="M8975 1831 c-74 -18 -140 -75 -174 -151 -26 -58 -28 -185 -4 -255 23
-70 87 -130 159 -151 152 -44 307 32 345 169 20 70 14 187 -11 245 -50 115
-182 175 -315 143z m136 -117 c58 -30 86 -147 59 -246 -15 -53 -70 -98 -121
-98 -86 0 -128 48 -137 157 -12 151 88 245 199 187z"/>
<path d="M9627 1826 c-21 -8 -47 -22 -57 -31 -18 -17 -20 -16 -31 9 -11 23
-18 26 -61 26 l-48 0 0 -280 0 -280 65 0 65 0 0 204 0 205 33 23 c24 18 45 23
89 23 103 0 117 -34 118 -292 l0 -163 66 0 66 0 -4 203 c-4 177 -7 208 -24
247 -46 101 -164 146 -277 106z"/>
<path d="M11237 1826 c-21 -8 -47 -22 -58 -32 -18 -16 -19 -16 -19 9 0 26 -1
27 -65 27 l-65 0 0 -280 0 -280 65 0 65 0 0 173 c0 147 3 178 19 214 29 62 91
88 154 64 22 -9 26 -5 50 44 17 35 23 57 16 61 -23 14 -125 14 -162 0z"/>
<path d="M11655 1831 c-74 -18 -140 -75 -174 -151 -26 -58 -28 -185 -4 -255
23 -70 87 -130 159 -151 152 -44 307 32 345 169 20 70 14 187 -11 245 -50 115
-182 175 -315 143z m136 -117 c58 -30 86 -147 59 -246 -15 -53 -70 -98 -121
-98 -86 0 -128 48 -137 157 -12 151 88 245 199 187z"/>
<path d="M13812 1821 c-66 -23 -126 -79 -158 -146 -26 -55 -33 -168 -14 -237
16 -55 69 -118 122 -145 87 -43 238 -40 315 7 l32 19 -21 48 c-11 26 -22 49
-23 51 -1 1 -22 -9 -46 -23 -102 -58 -231 -14 -255 88 l-6 27 206 0 206 0 1
38 c3 113 -16 167 -79 224 -72 65 -180 84 -280 49z m168 -106 c30 -15 60 -61
60 -90 0 -13 -20 -15 -135 -15 -88 0 -135 4 -135 10 0 25 33 72 63 90 39 24
106 26 147 5z"/>
<path d="M14497 1826 c-21 -8 -47 -22 -58 -32 -18 -16 -19 -16 -19 9 0 26 -1
27 -65 27 l-65 0 0 -280 0 -280 65 0 65 0 0 173 c0 147 3 178 19 214 29 62 91
88 154 64 22 -9 26 -5 50 44 17 35 23 57 16 61 -23 14 -125 14 -162 0z"/>
<path d="M7420 1632 c0 -227 11 -284 60 -326 70 -59 159 -59 293 -1 13 5 17 2
17 -14 0 -19 6 -21 65 -21 l65 0 0 280 0 280 -65 0 -65 0 0 -193 0 -193 -27
-26 c-56 -53 -134 -64 -180 -24 l-28 24 -3 206 -3 206 -65 0 -64 0 0 -198z"/>
<path d="M8460 1775 l0 -55 35 0 35 0 0 -225 0 -225 65 0 65 0 0 280 0 280
-100 0 -100 0 0 -55z"/>
<path d="M12050 1823 c0 -5 56 -132 123 -283 109 -243 126 -275 148 -278 22
-2 32 16 146 265 67 148 125 276 129 286 6 16 0 18 -62 15 l-68 -3 -69 -162
c-38 -90 -72 -163 -76 -163 -3 0 -35 75 -70 165 l-64 165 -69 0 c-37 0 -68 -3
-68 -7z"/>
<path d="M12680 1775 l0 -55 35 0 35 0 0 -225 0 -225 65 0 65 0 0 280 0 280
-100 0 -100 0 0 -55z"/>
<path d="M1593 1522 c-23 -3 -23 -5 -23 -178 l0 -174 25 -6 c34 -8 60 13 43
34 -9 10 -15 67 -18 171 -5 155 -5 156 -27 153z"/>
<path d="M2233 1520 c-23 -9 -53 -57 -53 -85 0 -8 -9 -15 -20 -15 -15 0 -20
-7 -20 -25 0 -18 5 -25 20 -25 19 0 20 -7 20 -105 l0 -105 30 0 30 0 0 105 0
105 25 0 c20 0 25 5 25 24 0 20 -6 25 -30 28 -28 3 -29 4 -17 28 8 16 23 26
40 28 16 2 31 10 34 19 11 28 -37 42 -84 23z"/>
<path d="M400 1340 l0 -180 30 0 30 0 0 180 0 180 -30 0 -30 0 0 -180z"/>
<path d="M790 1490 c0 -30 1 -30 55 -30 l55 0 0 -150 0 -150 30 0 30 0 0 150
0 150 60 0 60 0 0 30 0 30 -145 0 -145 0 0 -30z"/>
<path d="M1270 1340 l0 -180 30 0 30 0 0 65 c0 64 0 65 28 65 88 0 142 44 142
116 0 78 -54 113 -177 114 l-53 0 0 -180z m148 104 c47 -33 15 -94 -50 -94
l-38 0 0 55 0 55 33 0 c18 0 43 -7 55 -16z"/>
<path d="M1998 1484 c-19 -10 -28 -23 -28 -39 0 -16 -6 -25 -15 -25 -9 0 -15
-9 -15 -25 0 -15 6 -25 14 -25 11 0 15 -21 17 -85 5 -102 16 -118 86 -119 42
-1 48 2 51 22 3 18 -1 22 -25 22 -44 0 -53 17 -53 92 l0 68 35 0 c31 0 35 3
35 25 0 22 -4 25 -34 25 -33 0 -35 2 -38 39 l-3 39 -27 -14z"/>
<path d="M583 1406 c-61 -28 -83 -128 -43 -193 36 -60 145 -68 194 -14 41 45
38 144 -6 187 -30 30 -101 40 -145 20z m101 -52 c26 -25 25 -98 -1 -126 -23
-25 -68 -23 -87 4 -20 29 -20 87 0 116 18 26 65 30 88 6z"/>
<path d="M1743 1413 c-16 -3 -23 -12 -23 -29 0 -22 2 -23 45 -17 29 4 50 1 60
-7 25 -20 18 -27 -36 -34 -64 -9 -99 -40 -99 -89 0 -58 58 -89 124 -67 26 8
39 8 54 -1 26 -17 57 -4 46 19 -4 9 -10 54 -13 99 -5 64 -10 87 -26 103 -21
20 -90 33 -132 23z m97 -157 c0 -31 -22 -48 -57 -44 -57 6 -36 68 23 68 29 0
34 -3 34 -24z"/>
<path d="M2403 1406 c-61 -28 -83 -128 -43 -193 36 -60 145 -68 194 -14 41 45
38 144 -6 187 -30 30 -101 40 -145 20z m101 -52 c26 -25 25 -98 -1 -126 -23
-25 -68 -23 -87 4 -37 52 -9 138 44 138 16 0 36 -7 44 -16z"/>
<path d="M2630 1290 l0 -130 29 0 29 0 4 91 c3 99 15 119 68 119 31 0 58 35
34 44 -25 9 -47 7 -76 -8 -24 -13 -28 -13 -28 0 0 9 -11 14 -30 14 l-30 0 0
-130z"/>
<path d="M2840 1290 l0 -130 30 0 30 0 0 88 c0 96 12 122 58 122 32 0 42 -30
42 -124 0 -85 0 -86 25 -86 25 0 25 0 25 95 0 83 2 96 19 105 30 16 59 12 71
-9 5 -11 10 -58 10 -105 0 -85 0 -86 25 -86 l25 0 0 108 c0 93 -3 111 -18 125
-28 26 -76 31 -111 14 -27 -14 -35 -14 -59 -1 -35 18 -56 18 -92 -1 -27 -14
-30 -14 -30 0 0 9 -9 15 -25 15 l-25 0 0 -130z"/>
</g>
</svg>
